<svg xmlns="http://www.w3.org/2000/svg" xmlns:xlink="http://www.w3.org/1999/xlink" width="651.058" height="548.749" viewBox="0 0 651.058 548.749"><defs><style>.a{fill:rgba(0,0,0,0.11);}.b{opacity:0.051;}.c{fill:#e6e6e6;}.d,.h,.s{opacity:0.1;}.e,.h{fill:#1f1d22;}.f{fill:#e9f3f4;}.g{fill:#f2f2f2;}.i{fill:#ffb8b8;}.j{fill:#6020bb;}.k{fill:#2b006a;}.l{opacity:0.05;}.m{fill:#00b3b8;}.n{fill:#bcb6be;}.o{fill:#6c63ff;}.p{fill:#f8f7fa;}.q{fill:#fff;}.r{fill:#d5d1dd;}.t{fill:url(#c);}.u{fill:url(#d);}.v{fill:url(#e);}.w{fill:url(#f);}.x{fill:url(#g);}.y{fill:url(#h);}.z{fill:url(#i);}.aa{fill:url(#j);}.ab{fill:url(#k);}.ac{fill:url(#l);}.ad{fill:url(#m);}.ae{fill:url(#n);}.af{fill:url(#o);}.ag{fill:none;stroke:#fff;stroke-linecap:round;stroke-width:2px;}.ah{fill:#746d84;}.ai{filter:url(#a);}</style><filter id="a" x="349.462" y="118.321" width="157.624" height="157.624" filterUnits="userSpaceOnUse"><feOffset dx="-10" dy="2" input="SourceAlpha"/><feGaussianBlur stdDeviation="15" result="b"/><feFlood flood-opacity="0.161"/><feComposite operator="in" in2="b"/><feComposite in="SourceGraphic"/></filter><linearGradient id="c" x1="0.5" y1="0.995" x2="0.5" gradientUnits="objectBoundingBox"><stop offset="0" stop-color="gray" stop-opacity="0.251"/><stop offset="0.54" stop-color="gray" stop-opacity="0.122"/><stop offset="1" stop-color="gray" stop-opacity="0.102"/></linearGradient><linearGradient id="d" x1="0.5" y1="0.999" x2="0.5" y2="0.001" xlink:href="#c"/><linearGradient id="e" x1="0.5" y1="0.998" x2="0.5" y2="0" xlink:href="#c"/><linearGradient id="f" x1="0.5" y1="0.999" x2="0.5" y2="-0.001" xlink:href="#c"/><linearGradient id="g" x1="0.499" y1="0.999" x2="0.499" y2="-0.002" xlink:href="#c"/><linearGradient id="h" x1="0.5" y1="1" x2="0.5" y2="0.001" xlink:href="#c"/><linearGradient id="i" x1="0.498" y1="1.001" x2="0.498" y2="0" xlink:href="#c"/><linearGradient id="j" x1="0.511" y1="1.001" x2="0.511" y2="0" xlink:href="#c"/><linearGradient id="k" x1="0.5" y1="1.001" x2="0.5" y2="0.006" xlink:href="#c"/><linearGradient id="l" x1="0.5" y1="1" x2="0.5" y2="0" xlink:href="#c"/><linearGradient id="m" x1="0.5" y1="0.984" x2="0.5" y2="0" xlink:href="#c"/><linearGradient id="n" x1="0.5" y1="1" x2="0.5" y2="0" xlink:href="#c"/><linearGradient id="o" x1="0.5" y1="1.001" x2="0.5" y2="0.001" xlink:href="#c"/></defs><g transform="translate(53.581 21.324)"><path class="a" d="M534.434,153.606c-41.763-.072-80.308-13.625-120.2-28.687-38.2-14.424-76.047-30.414-117.05-38.027-26.373-4.92-56.535-5.613-77.78,8.132-35.309,22.842-42.085,74.159-23.317,109.309,13.242,24.8,27.947,44.967,24.725,74.7-2.121,19.581-10.32,38.128-21.163,54.569-17.3,26.228-46.6,51.672-45.142,85.768.948,22.131,16.221,41.64,34.918,53.521,63.363,40.261,143.188,51.779,216.589,58.8A912.444,912.444,0,0,0,642.838,523.4a873.13,873.13,0,0,0,85.727-18.663c22.943-6.254,47.958-12.3,64.612-30.586,7.21-7.915,12.131-18.2,12.329-28.909.224-12.148-5.618-23.827-13.861-32.755-23.233-25.166-65.367-30.023-79.47-64.03-27.97-67.445,74.684-104.46,77.939-166.872,2.018-38.682-27.96-66.2-63.312-75.168-17.263-4.38-36.083-4.892-53.438-.62-19.168,4.717-34.541,19.949-52.34,28.271a211.506,211.506,0,0,1-58.677,17.524A188.629,188.629,0,0,1,534.434,153.606Z" transform="translate(-208.035 -104.994)"/><ellipse class="b" cx="126.291" cy="22.474" rx="126.291" ry="22.474" transform="translate(232.693 444.36)"/><path class="c" d="M516.326,380.018V525.634l24.357,39.7,1.854,3.019h96.107l1.942-188.33Z" transform="translate(-111.944 -80.899)"/><path class="d" d="M516.326,380.018V525.634l24.357,39.7,1.495-185.311Z" transform="translate(-111.944 -80.899)"/><path class="c" d="M187.962,375.084V520.7l-24.357,39.7-1.854,3.019H65.645L63.7,375.084Z" transform="translate(-15.596 -79.849)"/><path class="d" d="M214.575,375.084V520.7l-24.357,39.7-1.495-185.312Z" transform="translate(-42.209 -79.849)"/><path class="c" d="M569.948,363.509v8.736H47.67v-12.62l48.539-25.24H527.234Z" transform="translate(-12.184 -71.185)"/><path class="d" d="M569.948,370.335v8.736H47.67v-12.62Z" transform="translate(-12.184 -78.011)"/><path class="e" d="M133.709,425.045h-23.3l-9.708-6.8h43.685Z" transform="translate(-23.472 -89.037)"/><path class="e" d="M133.709,460.811h-23.3l-9.708-6.8h43.685Z" transform="translate(-23.472 -96.651)"/><path class="e" d="M133.709,511.377h-23.3l-9.708-6.8h43.685Z" transform="translate(-23.472 -107.414)"/><path class="e" d="M133.709,561.942h-23.3l-9.708-6.8h43.685Z" transform="translate(-23.472 -118.178)"/><path class="e" d="M592.369,429.978h23.3l9.708-6.8H581.691Z" transform="translate(-125.858 -90.087)"/><path class="e" d="M592.369,465.744h23.3l9.708-6.8H581.691Z" transform="translate(-125.858 -97.701)"/><path class="e" d="M592.369,516.31h23.3l9.708-6.8H581.691Z" transform="translate(-125.858 -108.464)"/><path class="e" d="M592.369,566.875h23.3l9.708-6.8H581.691Z" transform="translate(-125.858 -119.228)"/><path class="e" d="M804.771,235.615H608.628a7.417,7.417,0,0,0-7.418,7.419V375.159a7.417,7.417,0,0,0,7.419,7.418h74.456l-2.789,17.81s-15.942,8.469-4.733,8.718,64.016,0,64.016,0,10.213,0-5.978-8.967l-2.624-17.561h73.794a7.417,7.417,0,0,0,7.418-7.419V243.033a7.417,7.417,0,0,0-7.419-7.418Z" transform="translate(-322.394 -140.806)"/><rect class="f" width="196.78" height="110.097" transform="translate(285.916 102.655)"/><circle class="g" cx="4.733" cy="4.733" r="4.733" transform="translate(379.573 226.951)"/><path class="e" d="M445.212,355.527v2.491H311.2v-1.993l.184-.5,3.3-8.967H442.472Z" transform="translate(-68.281 -73.777)"/><path class="e" d="M781.2,467.693c-.244,1.044-1.166,2.145-3.248,3.186-7.473,3.736-22.667-1-22.667-1s-11.707-1.993-11.707-7.224a9.348,9.348,0,0,1,1.026-.61c3.142-1.662,13.559-5.764,32.029.174a7.7,7.7,0,0,1,3.511,2.3A3.673,3.673,0,0,1,781.2,467.693Z" transform="translate(-352.699 -188.382)"/><path class="h" d="M781.479,467.693c-9.146,3.5-17.3,3.766-25.666-2.045a18.374,18.374,0,0,0-10.93-3.6c3.142-1.662,13.559-5.764,32.029.174a7.7,7.7,0,0,1,3.511,2.3A3.674,3.674,0,0,1,781.479,467.693Z" transform="translate(-352.977 -188.382)"/><path class="d" d="M445.212,357.952v2.491H311.2V358.45l.184-.5Z" transform="translate(-68.281 -76.202)"/><path class="e" d="M332.293,115.153a6.733,6.733,0,0,0-3.905.872,10.187,10.187,0,0,0-2.642,3.487,41.707,41.707,0,0,1-11.362,12.834c-3.376,2.473-7.668,5.557-7.09,10.117a13.673,13.673,0,0,0,1.646,4.271c3.114,6.287,11.613,11.145,10.777,18.319,3.094-5.18-1.045-7.741,2.05-12.921,1.474-2.467,4.033-5.252,6.258-3.7.745.519,1.234,1.449,2.01,1.9,1.851,1.086,3.82-.99,5.458-2.461,5.649-5.071,13.683-3.743,20.713-2.163,3.319.746,6.964,1.725,8.926,4.9,2.579,4.17-2.451,8.674-3.722,13.39a2.569,2.569,0,0,0,2.757,3.2c2.109-.208,4.608-.379,4.733-1.3,2.654.094,5.906-.206,7.043-2.969a11.621,11.621,0,0,0,.545-3.379c.417-4.642,2.387-8.877,3.693-13.295s1.873-9.6-.33-13.513a15.636,15.636,0,0,0-2.886-3.507C364.465,117.129,348.032,115.135,332.293,115.153Z" transform="translate(-259.818 -115.159)"/><path class="i" d="M323.8,188.9s2.718,22.652-7.249,24.465,9.061,32.62,9.061,32.62l45.3,5.437-10.873-36.244s-7.249-2.718-2.718-20.84S323.8,188.9,323.8,188.9Z" transform="translate(-261.185 -129.942)"/><path class="i" d="M47.028,569.318l3.625,49.836H69.68l-5.436-49.836Z" transform="translate(-12.047 -121.195)"/><path class="i" d="M224.3,449.11l2.718,41.68,20.841-9.061L239.706,447.3Z" transform="translate(-49.783 -95.221)"/><path class="e" d="M274.167,432.26s.906,52.554,6.343,69.77,4.531,18.122,3.624,20.84-1.812.906-1.812,5.437-1.812,76.112,0,82.455-5.437,17.216,0,18.122,30.807,0,31.713-5.437-7.249-7.249-3.624-10.873,9.061-77.924,9.061-77.924L332.157,483l23.559-27.183h49.835l15.4,59.8s-6.343,17.216-1.812,17.216,31.713,5.437,31.713-14.5S441.8,439.509,439.983,437.7s.906-8.155-1.812-10.873-34.432-21.746-46.211-25.371-28.3-7.938-28.3-7.938Z" transform="translate(-252.777 -174.417)"/><path class="e" d="M492.111,596.794s-13.591-4.53-19.934,9.061-3.624,17.216-3.624,17.216,20.84,7.249,24.465,3.624c1.577-1.577,6.584-2.125,11.738-2.24,7.85-.176,9.939-11.282,2.525-13.868q-.332-.116-.672-.2C499.36,608.574,492.111,596.794,492.111,596.794Z" transform="translate(-294.032 -217.534)"/><circle class="i" cx="27.183" cy="27.183" r="27.183" transform="translate(55.821 19.539)"/><path class="j" d="M301.424,233.408s44.4,9.061,55.272-5.437,15.4,40.774,15.4,40.774l5.437,57.99-8.155,31.713S326.795,392.881,313.2,395.6s-34.432,4.53-34.432,4.53,6.343-100.577,6.343-102.389S301.424,233.408,301.424,233.408Z" transform="translate(-253.758 -138.663)"/><path class="k" d="M309.687,213.246s-9.878-5.659-12.6-.222S269,232.052,266.283,232.052s5.437,75.206,1.812,84.267-20.84,75.206-10.873,80.643,2.718-5.437,12.685,8.155,58.9,13.591,61.615,8.155S309.776,367.061,314.306,329s11.779-90.61,5.437-97.859S309.687,213.246,309.687,213.246Z" transform="translate(-248.518 -135.495)"/><path class="k" d="M366.258,220.545l1.262-4.343s37.7,12.5,39.512,20.653.906,65.239-5.437,69.77-15.4,11.779-9.061,22.652,13.591,22.652,19.028,23.559,15.4,7.249,12.685,13.591-35.338-5.437-35.338-5.437-21.746-16.31-20.84-41.681S366.258,220.545,366.258,220.545Z" transform="translate(-272.38 -136.673)"/><path class="i" d="M395.479,357.554l-21.746,40.774s-31.713,32.62-13.591,36.244,28.089-29.9,28.089-29.9l23.559-33.526Z" transform="translate(-269.888 -166.762)"/><path class="e" d="M335.235,124.19a6.17,6.17,0,0,0-3.179.617,7.409,7.409,0,0,0-2.15,2.464,31.307,31.307,0,0,1-9.249,9.071c-2.748,1.748-6.242,3.928-5.772,7.15a8.94,8.94,0,0,0,1.34,3.018,23.742,23.742,0,0,1,2.885,14.8l7.557-10.984c1.2-1.744,3.283-3.712,5.094-2.617.606.367,1,1.024,1.636,1.346,1.507.768,3.109-.7,4.443-1.739,4.6-3.584,11.138-2.645,16.861-1.528,2.7.527,5.669,1.219,7.266,3.461,2.654,3.726-.117,9.109,1.432,13.413a3.954,3.954,0,0,0,1.636-2.611c2.16.067,4.807-.146,5.733-2.1a7.229,7.229,0,0,0,.444-2.388c.34-3.281,1.943-6.274,3.006-9.4s1.524-6.782-.269-9.551a11.558,11.558,0,0,0-2.349-2.479C361.424,125.587,348.047,124.177,335.235,124.19Z" transform="translate(-261.436 -117.084)"/><path class="k" d="M404.587,237.836l8.442,2.241s19.647,50.313,15.116,84.745S420.9,352,420.9,352s-7.249-16.31-23.559-12.685Z" transform="translate(-278.996 -141.279)"/><path class="i" d="M254.6,378.862l38.056,58.9s23.559,29.9,30.807,16.31-25.371-36.244-25.371-36.244l-24.465-45.3Z" transform="translate(-248.612 -169.948)"/><path class="k" d="M271.456,239.648l-7.249-1.812s-14.5,4.53-18.122,23.559-.906,95.14,3.624,96.046,22.376-13.253,25.233-10.251-6.2-12.4-3.486-20.557S271.456,239.648,271.456,239.648Z" transform="translate(-246.442 -141.279)"/><ellipse class="l" cx="38.258" cy="9.768" rx="38.258" ry="9.768" transform="translate(-25.963 507.89)"/><path class="e" d="M289,738.706c-2.185,2.969-1.747,7.214-3.682,10.351-1.678,2.72-4.84,4.146-6.938,6.556a17.57,17.57,0,0,0-1.784,2.566c-1.947,3.261-3.529,7.44-1.612,10.718,1.542,2.637,4.784,3.668,7.757,4.37,3.758.888,7.662,1.6,11.463.92s7.516-3.006,8.872-6.622a25.584,25.584,0,0,1,.949-2.677c2.06-4.056,8.523-4.1,10.631-8.131,1.476-2.821.119-6.231-1.237-9.112l-4.141-8.8c-1.374-2.92-6.945-1.241-9.85-1.94C295.644,736,291.729,734.99,289,738.706Z" transform="translate(-252.767 -247.333)"/><g transform="translate(317.278 105.249)"><ellipse class="m" cx="8.075" cy="8.247" rx="8.075" ry="8.247" transform="translate(57.877 14.088)"/><path class="j" d="M0,0H54.706V54.706H0Z" transform="translate(0 20.594)"/><rect class="n" width="54.706" height="54.706" transform="translate(77.245 20.594)"/><path class="o" d="M754.141,617.8c.592.967,4.061,2.694,4.061,2.694s.03-3.876-.567-4.842a2.053,2.053,0,1,0-3.5,2.149Z" transform="translate(-658.625 -524.017)"/><rect class="p" width="18.247" height="2.028" transform="translate(7.061 32.271)"/><rect class="d" width="12.27" height="2.284" transform="translate(40.685 39.418)"/><rect class="d" width="18.169" height="2.284" transform="translate(40.685 54.745)"/><rect class="p" width="18.247" height="2.028" transform="translate(7.061 39.418)"/><rect class="p" width="18.247" height="2.028" transform="translate(89.172 32.271)"/><rect class="p" width="18.247" height="2.028" transform="translate(89.172 39.418)"/><g class="ai" transform="matrix(1, 0, 0, 1, -370.86, -126.57)"><rect class="q" width="67.624" height="67.624" transform="translate(404.46 161.32)"/></g><rect class="m" width="53.458" height="2.028" transform="translate(40.685 42.238)"/><rect class="m" width="39.57" height="2.028" transform="translate(40.685 47.376)"/><rect class="r" width="39.57" height="2.028" transform="translate(40.685 63.66)"/><rect class="r" width="33.028" height="2.028" transform="translate(40.685 70.511)"/><rect class="r" width="45.023" height="2.028" transform="translate(40.685 77.315)"/><g class="s" transform="translate(67.861 109.309)"><path class="t" d="M593.15,728.367a15.629,15.629,0,0,0,2.606.019C596.444,728.25,593.15,728.367,593.15,728.367Z" transform="translate(-593.15 -728.32)"/></g><g class="s" transform="translate(67.997 110.436)"><path class="u" d="M593.79,733.609s2.557.443,2.685.213S593.79,733.609,593.79,733.609Z" transform="translate(-593.79 -733.608)"/></g><g class="s" transform="translate(60.201 109.974)"><path class="v" d="M557.2,731.44a7.075,7.075,0,0,1,2.041.386C559.961,732.154,557.2,731.44,557.2,731.44Z" transform="translate(-557.2 -731.44)"/></g><g class="s" transform="translate(57.21 86.341)"><path class="w" d="M560.987,621.938a2.909,2.909,0,0,1-.72.4c-1.788.695-3.733,1.66-5.056,1.278a14.062,14.062,0,0,0-4.12,0s-5.64-.464-6.767-.194a2.185,2.185,0,0,1-1.163.03c.051-.466.094-.763.094-.763s16.74-2.691,17.411-2.081A2.553,2.553,0,0,1,560.987,621.938Z" transform="translate(-543.16 -620.519)"/></g><g class="s" transform="translate(70.681 79.626)"><path class="x" d="M607.77,589s.5,2.836-1.381,3.835A8.617,8.617,0,0,0,607.77,589Z" transform="translate(-606.39 -589)"/></g><g class="s" transform="translate(59.715 83.132)"><path class="y" d="M554.92,605.859s4.549-.771,5.444-.175S554.92,605.859,554.92,605.859Z" transform="translate(-554.92 -605.458)"/></g><g class="s" transform="translate(57.282 63.63)"><path class="z" d="M543.519,513.92a2.812,2.812,0,0,1,.254,2.16C543.387,517.176,543.519,513.92,543.519,513.92Z" transform="translate(-543.497 -513.92)"/></g><g class="s" transform="translate(55.897 70.727)"><path class="aa" d="M537,547.23s.758.407.852,1S537,547.23,537,547.23Z" transform="translate(-537 -547.23)"/></g><g class="s" transform="translate(67.143 93.153)"><path class="ab" d="M589.78,653.129s4.764.484,5.716-.639C595.5,652.494,591.2,653.342,589.78,653.129Z" transform="translate(-589.78 -652.49)"/></g><g class="s" transform="translate(58.919 93.524)"><path class="ac" d="M551.18,654.23s5.113,1.2,6.123.249C557.3,654.479,552.91,654.807,551.18,654.23Z" transform="translate(-551.18 -654.23)"/></g><g class="s" transform="translate(67.511 95.356)"><path class="ad" d="M591.51,662.83s2.131,0,3.13.057S591.51,662.83,591.51,662.83Z" transform="translate(-591.51 -662.83)"/></g><g class="s" transform="translate(59.268 96.262)"><path class="ae" d="M552.82,667.08a2.843,2.843,0,0,0,2.235.965C556.239,667.834,552.82,667.08,552.82,667.08Z" transform="translate(-552.82 -667.08)"/></g><g class="s" transform="translate(77.231 62.447)"><path class="af" d="M641.468,510.4a6.82,6.82,0,0,1-1.828,2.8h-.573a26.434,26.434,0,0,1,1.176-2.8c.247-.375-1.877-1.244-3.113-1.724.189-.019.392-.3.392-.3S642.265,508.4,641.468,510.4Z" transform="translate(-637.13 -508.37)"/></g><path class="d" d="M593.19,729.33a15.278,15.278,0,0,0,2.557.019C596.409,729.215,593.19,729.33,593.19,729.33Z" transform="translate(-525.321 -619.77)"/><path class="d" d="M593.82,734.529s2.505.441,2.64.213S593.82,734.529,593.82,734.529Z" transform="translate(-525.817 -623.897)"/><path class="d" d="M557.82,732.38a6.938,6.938,0,0,1,2.007.381C560.534,733.085,557.82,732.38,557.82,732.38Z" transform="translate(-497.487 -622.206)"/><path class="d" d="M591.57,664.32s2.105,0,3.081.057S591.57,664.32,591.57,664.32Z" transform="translate(-524.046 -568.646)"/><g transform="translate(22.582 0)"><g transform="translate(0 0)"><circle class="m" cx="6.7" cy="6.7" r="6.7" transform="translate(0)"/></g><path class="ag" d="M1617.081,731.2l2.282,2.138,4.178-4.926" transform="translate(-1613.424 -723.92)"/></g><g transform="translate(97.145 0)"><g transform="translate(0 0)"><circle class="ah" cx="6.7" cy="6.7" r="6.7"/></g></g><path class="q" d="M584.66,241.719l.414-.543a2.148,2.148,0,0,0,1.492.614c.7,0,1.218-.342,1.218-.9,0-.6-.5-1-1.875-1v-.624c1.227,0,1.688-.4,1.688-.936,0-.482-.413-.783-1.025-.783a1.973,1.973,0,0,0-1.283.525l-.44-.525a2.683,2.683,0,0,1,1.757-.683c1.06,0,1.841.509,1.841,1.4,0,.629-.46,1.04-1.123,1.268v.034a1.465,1.465,0,0,1,1.306,1.36c0,.97-.921,1.551-2.007,1.551A2.661,2.661,0,0,1,584.66,241.719Z" transform="translate(-482.85 -232.838)"/><g transform="translate(63.736 18.799)"><path class="q" d="M261.79,142.369v-.575l.735-.715c1.77-1.684,2.57-2.58,2.58-3.625a1.236,1.236,0,0,0-1.375-1.354,2.366,2.366,0,0,0-1.472.586l-.3-.66a3.042,3.042,0,0,1,1.962-.7,1.95,1.95,0,0,1,2.122,2.015c0,1.279-.927,2.314-2.387,3.721l-.555.512v.021h3.113v.778Z" transform="translate(-261.79 -135.322)"/></g></g></g></svg>