<svg xmlns="http://www.w3.org/2000/svg" width="683.294" height="616.791" viewBox="0 0 683.294 616.791">
  <g id="Group_20893" data-name="Group 20893" transform="translate(-277.059 -2501.063)">
    <path id="_621dcb9c18191516b16d18df_roadmap_blob" data-name="621dcb9c18191516b16d18df_roadmap_blob" d="M393.956,36.841c52.152,25.723,101.663,66.8,119.214,119.034,17.861,52.2,3.76,115.571-21.116,175.151s-60.911,114.787-109.745,131.95c-48.869,16.854-110.916-4.92-170.34-22.917-59.458-18.307-116.6-32.8-155.025-70.122C18.828,332.582-.6,272.094.223,210.551.7,148.734,21.445,85.864,63.309,48.8,105.482,11.706,168.78.419,227.705.29,286.94.125,341.8,11.118,393.956,36.841Z" transform="translate(276.861 2527.39)" fill="#66c4cd"/>
    <g id="Group_20263" data-name="Group 20263" transform="translate(-696.279 1794.074)">
      <line id="Line_54" data-name="Line 54" y1="115" x2="115" transform="translate(1523.609 780.5)" fill="none" stroke="#9fd8e0" stroke-width="1"/>
      <line id="Line_55" data-name="Line 55" y1="115" x2="115" transform="translate(1541.279 728)" fill="none" stroke="#8e73ee" stroke-width="1"/>
    </g>
    <g id="Group_20264" data-name="Group 20264" transform="translate(-582.496 2337)">
      <line id="Line_1" data-name="Line 1" y1="115" x2="115" transform="translate(1051.5 665.5)" fill="none" stroke="#9fd8e0" stroke-width="1"/>
      <line id="Line_52" data-name="Line 52" y1="115" x2="115" transform="translate(1069.169 613)" fill="none" stroke="#8e73ee" stroke-width="1"/>
      <line id="Line_53" data-name="Line 53" y1="115" x2="115" transform="translate(980.5 665.5)" fill="none" stroke="#9fd8e0" stroke-width="1"/>
    </g>
    <g id="Group_20316" data-name="Group 20316" transform="translate(61)">
      <path id="Path_20690" data-name="Path 20690" d="M516.326,380.018V516.671l22.858,37.252,1.74,2.834h90.191l1.822-176.739Z" transform="translate(143.077 2401.78)" fill="#e6e6e6"/>
      <path id="Path_20691" data-name="Path 20691" d="M516.326,380.018V516.671l22.858,37.252,1.4-173.905Z" transform="translate(143.077 2401.78)" opacity="0.1"/>
      <path id="Path_20692" data-name="Path 20692" d="M180.314,375.084V511.738L157.456,548.99l-1.74,2.833H65.525L63.7,375.084Z" transform="translate(261.354 2403.07)" fill="#e6e6e6"/>
      <path id="Path_20693" data-name="Path 20693" d="M212.984,375.084V511.738L190.126,548.99l-1.4-173.906Z" transform="translate(228.684 2403.07)" opacity="0.1"/>
      <path id="Path_20694" data-name="Path 20694" d="M537.8,361.716v8.2H47.67V358.072l45.551-23.687h404.5Z" transform="translate(265.543 2413.705)" fill="#e6e6e6"/>
      <path id="Path_20695" data-name="Path 20695" d="M537.8,370.1v8.2H47.67V366.451Z" transform="translate(265.543 2405.326)" opacity="0.1"/>
      <path id="Path_20696" data-name="Path 20696" d="M131.677,424.627H109.812l-9.11-6.377h41Z" transform="translate(251.685 2391.79)" fill="#3f3d56"/>
      <path id="Path_20697" data-name="Path 20697" d="M131.677,460.393H109.812l-9.11-6.377h41Z" transform="translate(251.685 2382.444)" fill="#3f3d56"/>
      <path id="Path_20698" data-name="Path 20698" d="M131.677,510.959H109.812l-9.11-6.378h41Z" transform="translate(251.685 2369.23)" fill="#3f3d56"/>
      <path id="Path_20699" data-name="Path 20699" d="M131.677,561.524H109.812l-9.11-6.377h41Z" transform="translate(251.685 2356.017)" fill="#3f3d56"/>
      <path id="Path_20700" data-name="Path 20700" d="M591.712,429.56h21.865l9.11-6.377h-41Z" transform="translate(125.996 2390.501)" fill="#3f3d56"/>
      <path id="Path_20701" data-name="Path 20701" d="M591.712,465.326h21.865l9.11-6.377h-41Z" transform="translate(125.996 2381.155)" fill="#3f3d56"/>
      <path id="Path_20702" data-name="Path 20702" d="M591.712,515.892h21.865l9.11-6.377h-41Z" transform="translate(125.996 2367.941)" fill="#3f3d56"/>
      <path id="Path_20703" data-name="Path 20703" d="M591.712,566.457h21.865l9.11-6.377h-41Z" transform="translate(125.996 2354.728)" fill="#3f3d56"/>
      <path id="Path_20704" data-name="Path 20704" d="M792.242,235.615H608.172a6.961,6.961,0,0,0-6.961,6.962V366.57a6.961,6.961,0,0,0,6.962,6.961h69.874l-2.618,16.714s-14.96,7.948-4.441,8.181,60.076,0,60.076,0,9.584,0-5.61-8.415l-2.462-16.48h69.252a6.961,6.961,0,0,0,6.961-6.962V242.576a6.961,6.961,0,0,0-6.962-6.961Z" transform="translate(-59.644 2354.448)" fill="#3f3d56"/>
      <rect id="Rectangle_4463" data-name="Rectangle 4463" width="184.668" height="103.321" transform="translate(548.229 2597.427)" fill="#f2f2f2"/>
      <circle id="Ellipse_9" data-name="Ellipse 9" cx="1.169" cy="1.169" r="1.169" transform="translate(639.394 2592.985)" fill="#f2f2f2"/>
      <circle id="Ellipse_10" data-name="Ellipse 10" cx="4.441" cy="4.441" r="4.441" transform="translate(636.122 2714.072)" fill="#f2f2f2"/>
      <path id="Path_20705" data-name="Path 20705" d="M436.963,354.975v2.338H311.2v-1.87l.173-.468,3.1-8.415H434.392Z" transform="translate(196.679 2410.523)" fill="#3f3d56"/>
      <path id="Path_20706" data-name="Path 20706" d="M778.886,467.165c-.229.979-1.094,2.013-3.048,2.99-7.013,3.506-21.272-.935-21.272-.935s-10.987-1.87-10.987-6.779a8.767,8.767,0,0,1,.963-.573c2.948-1.56,12.724-5.409,30.057.163a7.229,7.229,0,0,1,3.295,2.159A3.448,3.448,0,0,1,778.886,467.165Z" transform="translate(-96.847 2296.045)" fill="#3f3d56"/>
      <path id="Path_20707" data-name="Path 20707" d="M779.226,467.165c-8.584,3.289-16.234,3.534-24.086-1.919a17.244,17.244,0,0,0-10.257-3.378c2.948-1.56,12.724-5.409,30.057.163a7.23,7.23,0,0,1,3.295,2.159,3.447,3.447,0,0,1,.991,2.975Z" transform="translate(-97.187 2296.045)" opacity="0.1"/>
      <ellipse id="Ellipse_11" data-name="Ellipse 11" cx="3.039" cy="0.935" rx="3.039" ry="0.935" transform="translate(668.238 2759.421)" fill="#f2f2f2"/>
      <path id="Path_20708" data-name="Path 20708" d="M436.963,357.952v2.338H311.2v-1.87l.173-.468Z" transform="translate(196.679 2407.547)" opacity="0.1"/>
      <path id="Path_20709" data-name="Path 20709" d="M330.751,115.151a6.319,6.319,0,0,0-3.665.819,9.56,9.56,0,0,0-2.479,3.272,39.14,39.14,0,0,1-10.662,12.044c-3.168,2.321-7.2,5.215-6.654,9.494a12.832,12.832,0,0,0,1.544,4.008c2.923,5.9,10.9,10.459,10.114,17.191,2.9-4.861-.98-7.265,1.924-12.126,1.383-2.315,3.785-4.928,5.873-3.474.7.487,1.158,1.36,1.886,1.787,1.737,1.019,3.585-.929,5.122-2.309,5.3-4.759,12.841-3.512,19.438-2.03,3.114.7,6.535,1.618,8.376,4.6,2.421,3.914-2.3,8.141-3.493,12.565a2.411,2.411,0,0,0,2.588,3c1.979-.2,4.324-.355,4.442-1.224,2.491.089,5.542-.193,6.609-2.787a10.907,10.907,0,0,0,.512-3.171c.392-4.356,2.241-8.33,3.465-12.476s1.757-9-.31-12.681a14.673,14.673,0,0,0-2.708-3.291C360.943,117.006,345.521,115.134,330.751,115.151Z" transform="translate(17.174 2385.933)" fill="#2f2e41"/>
      <path id="Path_20710" data-name="Path 20710" d="M323.178,188.631s2.551,21.258-6.8,22.959,8.5,30.612,8.5,30.612l42.516,5.1-10.2-34.013s-6.8-2.551-2.551-19.558S323.178,188.631,323.178,188.631Z" transform="translate(15.496 2367.785)" fill="#ffb8b8"/>
      <path id="Path_20711" data-name="Path 20711" d="M47.028,569.318l3.4,46.768H68.286l-5.1-46.768Z" transform="translate(265.711 2352.314)" fill="#ffb8b8"/>
      <path id="Path_20712" data-name="Path 20712" d="M224.3,449l2.551,39.115,19.558-8.5L238.758,447.3Z" transform="translate(219.387 2384.199)" fill="#ffb8b8"/>
      <path id="Path_20713" data-name="Path 20713" d="M274.167,429.875s.85,49.319,5.952,65.475,4.252,17.007,3.4,19.558-1.7.85-1.7,5.1-1.7,71.428,0,77.38-5.1,16.156,0,17.007,28.911,0,29.762-5.1-6.8-6.8-3.4-10.2,8.5-73.128,8.5-73.128l11.9-48.469,22.109-25.51h46.768l14.456,56.122s-5.952,16.156-1.7,16.156,29.762,5.1,29.762-13.605-8.5-73.979-10.2-75.679.85-7.653-1.7-10.2-32.312-20.408-43.367-23.809-26.562-7.45-26.562-7.45Z" transform="translate(25.817 2313.187)" fill="#2f2e41"/>
      <path id="Path_20714" data-name="Path 20714" d="M490.625,596.75s-12.755-4.252-18.707,8.5-3.4,16.156-3.4,16.156,19.558,6.8,22.959,3.4c1.48-1.48,6.179-1.994,11.016-2.1,7.367-.165,9.327-10.588,2.369-13.015q-.311-.109-.63-.189C497.428,607.8,490.625,596.75,490.625,596.75Z" transform="translate(-24.827 2260.257)" fill="#2f2e41"/>
      <circle id="Ellipse_12" data-name="Ellipse 12" cx="25.51" cy="25.51" r="25.51" transform="translate(332.297 2519.426)" fill="#ffb8b8"/>
      <path id="Path_20715" data-name="Path 20715" d="M300.03,232.924s41.666,8.5,51.87-5.1,14.456,38.265,14.456,38.265l5.1,54.421L363.8,350.27s-39.965,32.313-52.72,34.863-32.312,4.252-32.312,4.252S284.724,295,284.724,293.3,300.03,232.924,300.03,232.924Z" transform="translate(24.614 2357.079)" fill="#9470f6"/>
      <path id="Path_20716" data-name="Path 20716" d="M306.269,213.087s-9.27-5.311-11.821-.209-26.36,17.857-28.911,17.857,5.1,70.577,1.7,79.081-19.558,70.577-10.2,75.679,2.551-5.1,11.9,7.653S324.209,405.9,326.76,400.8s-20.408-43.367-16.156-79.081,11.054-85.033,5.1-91.836S306.269,213.087,306.269,213.087Z" transform="translate(31.046 2360.969)" fill="#1f1048"/>
      <path id="Path_20717" data-name="Path 20717" d="M366.258,220.278l1.184-4.076s35.38,11.729,37.08,19.382.85,61.224-5.1,65.475-14.456,11.054-8.5,21.258,12.755,21.258,17.857,22.109,14.456,6.8,11.9,12.755-33.163-5.1-33.163-5.1-20.408-15.306-19.558-39.115S366.258,220.278,366.258,220.278Z" transform="translate(1.752 2359.521)" fill="#1f1048"/>
      <path id="Path_20718" data-name="Path 20718" d="M392.959,357.554l-20.408,38.265S342.79,426.431,359.8,429.832s26.36-28.061,26.36-28.061l22.109-31.462Z" transform="translate(4.813 2322.584)" fill="#ffb8b8"/>
      <path id="Path_20719" data-name="Path 20719" d="M333.98,124.189a5.79,5.79,0,0,0-2.983.579,6.954,6.954,0,0,0-2.018,2.313,29.38,29.38,0,0,1-8.68,8.513c-2.579,1.64-5.858,3.686-5.417,6.71a8.391,8.391,0,0,0,1.257,2.833,22.281,22.281,0,0,1,2.707,13.888l7.091-10.308c1.126-1.636,3.081-3.483,4.781-2.456.569.344.943.961,1.535,1.263,1.414.72,2.918-.657,4.17-1.632,4.316-3.364,10.453-2.482,15.823-1.434,2.535.495,5.32,1.144,6.819,3.248,2.491,3.5-.11,8.548,1.344,12.587a3.711,3.711,0,0,0,1.535-2.45c2.027.063,4.512-.137,5.38-1.97a6.785,6.785,0,0,0,.417-2.241c.319-3.079,1.824-5.888,2.821-8.818s1.431-6.365-.252-8.963a10.843,10.843,0,0,0-2.2-2.326C358.557,125.5,346,124.177,333.98,124.189Z" transform="translate(15.188 2383.57)" fill="#2f2e41"/>
      <path id="Path_20720" data-name="Path 20720" d="M404.141,237.836l7.923,2.1s18.438,47.216,14.186,79.529-6.8,25.51-6.8,25.51-6.8-15.306-22.109-11.9Z" transform="translate(-6.369 2353.868)" fill="#1f1048"/>
      <path id="Path_20721" data-name="Path 20721" d="M288.088,738.543c-2.051,2.787-1.639,6.77-3.456,9.714-1.574,2.552-4.542,3.891-6.511,6.152a16.491,16.491,0,0,0-1.674,2.408c-1.827,3.06-3.312,6.982-1.513,10.058,1.447,2.475,4.49,3.442,7.28,4.1,3.527.833,7.191,1.5,10.758.863s7.054-2.821,8.325-6.214a24,24,0,0,1,.89-2.512c1.933-3.806,8-3.847,9.977-7.631,1.385-2.647.112-5.848-1.161-8.551l-3.886-8.256c-1.29-2.74-6.518-1.164-9.243-1.821C294.319,736,290.645,735.056,288.088,738.543Z" transform="translate(25.829 2223.676)" fill="#2f2e41"/>
      <path id="Path_20722" data-name="Path 20722" d="M254.6,378.471l35.714,55.271s22.108,28.061,28.911,15.306-23.809-34.013-23.809-34.013l-22.959-42.516Z" transform="translate(30.931 2318.674)" fill="#ffb8b8"/>
      <path id="Path_20723" data-name="Path 20723" d="M269.791,239.537l-6.8-1.7s-13.605,4.252-17.007,22.109-.85,89.284,3.4,90.135,21-12.437,23.68-9.62-5.823-11.638-3.272-19.291S269.791,239.537,269.791,239.537Z" transform="translate(33.594 2353.868)" fill="#1f1048"/>
      <g id="Group_13" data-name="Group 13" transform="translate(573.431 2631.361)">
        <rect id="Rectangle_55" data-name="Rectangle 55" width="21.978" height="5.291" transform="translate(27.676)" fill="#9470f6"/>
        <rect id="Rectangle_56" data-name="Rectangle 56" width="7.733" height="5.291" transform="translate(118.028)" fill="#9470f6"/>
        <rect id="Rectangle_57" data-name="Rectangle 57" width="7.733" height="5.291" transform="translate(133.494)" fill="#9470f6"/>
        <rect id="Rectangle_58" data-name="Rectangle 58" width="52.502" height="5.291" transform="translate(57.386)" fill="#9470f6"/>
        <rect id="Rectangle_59" data-name="Rectangle 59" width="21.978" height="5.291" transform="translate(0 34.187)" fill="#9470f6"/>
        <rect id="Rectangle_60" data-name="Rectangle 60" width="7.733" height="5.291" transform="translate(90.353 34.187)" fill="#9470f6"/>
        <rect id="Rectangle_61" data-name="Rectangle 61" width="7.733" height="5.291" transform="translate(105.818 34.187)" fill="#9470f6"/>
        <rect id="Rectangle_62" data-name="Rectangle 62" width="52.502" height="5.291" transform="translate(29.711 34.187)" fill="#9470f6"/>
        <rect id="Rectangle_63" data-name="Rectangle 63" width="21.978" height="5.291" transform="translate(90.76 11.803)" fill="#9470f6"/>
        <rect id="Rectangle_64" data-name="Rectangle 64" width="21.978" height="5.291" transform="translate(120.47 11.803)" fill="#9470f6"/>
        <rect id="Rectangle_66" data-name="Rectangle 66" width="7.733" height="5.291" transform="translate(0 11.803)" fill="#9470f6"/>
        <rect id="Rectangle_67" data-name="Rectangle 67" width="7.733" height="5.291" transform="translate(15.466 11.803)" fill="#9470f6"/>
        <rect id="Rectangle_68" data-name="Rectangle 68" width="52.502" height="5.291" transform="translate(30.932 11.803)" fill="#9470f6"/>
        <rect id="Rectangle_69" data-name="Rectangle 69" width="21.978" height="5.291" transform="translate(45.176 23.199)" fill="#9470f6"/>
        <rect id="Rectangle_70" data-name="Rectangle 70" width="21.978" height="5.291" transform="translate(15.466 23.199)" fill="#9470f6"/>
        <rect id="Rectangle_71" data-name="Rectangle 71" width="7.733" height="5.291" transform="translate(0 23.199)" fill="#9470f6"/>
        <rect id="Rectangle_73" data-name="Rectangle 73" width="7.733" height="5.291" transform="translate(134.715 23.199)" fill="#9470f6"/>
        <rect id="Rectangle_74" data-name="Rectangle 74" width="52.502" height="5.291" transform="translate(74.48 23.199)" fill="#9470f6"/>
      </g>
    </g>
  </g>
</svg>
