<svg width="1409" height="1087" viewBox="0 0 1409 1087" fill="none" xmlns="http://www.w3.org/2000/svg">
<g clip-path="url(#clip0_16939_3758)">
<path d="M703.688 132.958C576.743 -8.20467 352.716 -46.1263 190.345 60.8367C27.9737 167.8 -35.6232 376.792 19.245 553.424C74.1132 730.056 233.448 870.459 419.539 937.151C723.875 1046.2 1110.84 1003.29 1284.98 842.347C1416.57 720.743 1436.81 591.141 1376 495.053C1309.16 389.447 1162.92 358.094 1034.69 326.142C906.463 294.191 803.557 244.008 703.674 132.958H703.688Z" fill="#E0F5FC"/>
<g style="mix-blend-mode:multiply">
<path d="M1145.44 138.461H338.078C326.873 138.461 317.789 147.545 317.789 158.75V687.215C317.789 698.421 326.873 707.505 338.078 707.505H1145.44C1156.64 707.505 1165.73 698.421 1165.73 687.215V158.75C1165.73 147.545 1156.64 138.461 1145.44 138.461Z" fill="#E0F5FC"/>
</g>
<path d="M1141.73 137.22V665.671C1141.73 676.881 1132.65 685.974 1121.44 685.974H314.093C302.883 685.974 293.789 676.881 293.789 665.671V137.22C293.789 126.01 302.883 116.916 314.093 116.916H1121.44C1132.65 116.916 1141.73 126.01 1141.73 137.22Z" fill="#384773"/>
<path d="M1117.79 138.461H317.742V664.445H1117.79V138.461Z" fill="white"/>
<path d="M341.037 164.151C345.705 164.151 349.489 160.367 349.489 155.699C349.489 151.032 345.705 147.248 341.037 147.248C336.37 147.248 332.586 151.032 332.586 155.699C332.586 160.367 336.37 164.151 341.037 164.151Z" fill="#9ADDEE"/>
<path d="M365.447 164.151C370.115 164.151 373.899 160.367 373.899 155.699C373.899 151.032 370.115 147.248 365.447 147.248C360.78 147.248 356.996 151.032 356.996 155.699C356.996 160.367 360.78 164.151 365.447 164.151Z" fill="#9ADDEE"/>
<path d="M389.85 164.151C394.517 164.151 398.301 160.367 398.301 155.699C398.301 151.032 394.517 147.248 389.85 147.248C385.182 147.248 381.398 151.032 381.398 155.699C381.398 160.367 385.182 164.151 389.85 164.151Z" fill="#9ADDEE"/>
<path d="M1024.29 269.683H411.234V316.391H1024.29V269.683Z" fill="#94E7FC"/>
<path d="M755.449 396.979H419.73V590.411H755.449V396.979Z" fill="#94E7FC"/>
<path d="M587.587 532.112C608.796 532.112 625.99 514.919 625.99 493.709C625.99 472.499 608.796 455.306 587.587 455.306C566.377 455.306 549.184 472.499 549.184 493.709C549.184 514.919 566.377 532.112 587.587 532.112Z" fill="white"/>
<path d="M601.888 489.842L584.285 478.106C581.205 476.048 577.074 478.267 577.074 481.974V505.446C577.074 509.153 581.205 511.357 584.285 509.314L601.888 497.578C604.647 495.739 604.647 491.696 601.888 489.857V489.842Z" fill="#94E7FC"/>
<path d="M852.312 417.809H1015.79" stroke="#94E7FC" stroke-width="2.9193" stroke-miterlimit="10"/>
<path d="M852.312 455.76H1015.79" stroke="#94E7FC" stroke-width="2.9193" stroke-miterlimit="10"/>
<path d="M852.312 493.71H1015.79" stroke="#94E7FC" stroke-width="2.9193" stroke-miterlimit="10"/>
<path d="M852.312 531.661H1015.79" stroke="#94E7FC" stroke-width="2.9193" stroke-miterlimit="10"/>
<path d="M852.312 569.612H1015.79" stroke="#94E7FC" stroke-width="2.9193" stroke-miterlimit="10"/>
<path d="M518.635 1005.86L512.417 922.306L472.438 919.78L487.107 1005.86H518.635Z" fill="#FFA58A"/>
<path d="M480.465 1026.26C480.465 1026.26 478.83 998.719 482.421 986.516C501.017 995.055 521.759 986.473 521.759 986.473L553.71 1007.08C553.71 1007.08 566.526 1005.04 571.387 1008.98C576.247 1012.92 577.386 1026.26 577.386 1026.26H480.451H480.465Z" fill="#2A375E"/>
<path d="M549.343 1005.74C544.745 1006.91 540.322 1008.73 536.25 1011.16" stroke="black" stroke-width="0.729824" stroke-miterlimit="10" stroke-linecap="round"/>
<path d="M543.404 1001.61C538.631 1003.24 534.092 1005.57 529.961 1008.46" stroke="black" stroke-width="0.729824" stroke-miterlimit="10" stroke-linecap="round"/>
<path d="M537.71 996.938C533.156 998.426 528.806 1000.59 524.895 1003.35" stroke="black" stroke-width="0.729824" stroke-miterlimit="10" stroke-linecap="round"/>
<path d="M499.687 1008.7L493.484 925.167L453.504 922.642L468.173 1008.7H499.687Z" fill="#FFB8A2"/>
<path d="M461.531 1029.12C461.531 1029.12 459.897 1001.58 463.487 989.377C482.083 997.916 502.825 989.333 502.825 989.333L534.777 1009.94C534.777 1009.94 547.592 1007.9 552.453 1011.84C557.314 1015.78 558.452 1029.12 558.452 1029.12H461.517H461.531Z" fill="#384773"/>
<path d="M530.413 1008.6C525.815 1009.77 521.393 1011.59 517.32 1014.02" stroke="black" stroke-width="0.729824" stroke-miterlimit="10" stroke-linecap="round"/>
<path d="M524.471 1004.47C519.698 1006.1 515.158 1008.43 511.027 1011.32" stroke="black" stroke-width="0.729824" stroke-miterlimit="10" stroke-linecap="round"/>
<path d="M518.781 999.799C514.226 1001.29 509.877 1003.45 505.965 1006.21" stroke="black" stroke-width="0.729824" stroke-miterlimit="10" stroke-linecap="round"/>
<path d="M439.742 910.206H213.935C201.382 910.206 190.726 900.996 188.931 888.56L157.111 668.488C154.016 647.105 170.598 627.939 192.215 627.939H366.629L356.177 843.909L439.567 878.911L439.742 910.206Z" fill="#FF794A"/>
<path d="M98.4023 625.355L151.037 625.078L189.426 891.084" stroke="black" stroke-width="1.45965" stroke-miterlimit="10" stroke-linecap="round"/>
<path d="M137.447 616.291H82.8998C78.8691 616.291 75.6016 619.559 75.6016 623.589V626.567C75.6016 630.598 78.8691 633.865 82.8998 633.865H137.447C141.478 633.865 144.745 630.598 144.745 626.567V623.589C144.745 619.559 141.478 616.291 137.447 616.291Z" fill="#363636"/>
<path d="M332.719 860.972C302.737 877.145 262.787 872.241 237.593 849.324C234.061 825.999 232.601 802.645 231.127 779.305C230.777 773.671 230.295 767.686 226.894 763.176C222.982 757.979 216.209 756.038 210.079 753.863C196.971 749.207 183.689 740.712 180.083 727.283C176.288 713.168 184.287 698.849 191.979 686.413C204.051 666.927 216.107 647.44 228.164 627.939H259.4C263.429 658.154 267.458 688.354 271.486 718.569C275.004 744.959 278.58 771.583 287.44 796.704C296.3 821.824 310.941 845.646 332.719 860.972Z" fill="#E85E2C"/>
<path d="M394.27 616.291C398.474 647.206 401.32 678.326 402.78 709.825C415.624 709.373 428.455 708.935 441.3 708.482C443.008 708.424 444.89 708.424 446.16 709.548C447.489 710.716 447.678 712.686 447.781 714.452C448.437 725.4 449.08 736.347 449.736 747.294C423.419 748.156 397.087 749.017 370.77 749.863C374.214 704.571 381.148 659.54 394.27 616.291Z" fill="white"/>
<path d="M526.315 959.673L485.635 965.205L455.362 867.497C454.953 865.833 453.347 864.738 451.654 864.899L327.789 877.568C273.431 879.013 262.922 846.595 262.922 846.595C266.746 847.354 270.57 847.354 274.322 846.697C308.988 840.829 339.51 781.596 339.51 781.596L377.49 783.202L465.521 781.523C484.657 781.713 500.844 795.711 503.764 814.643L526.315 959.673Z" fill="#212E82"/>
<path d="M500.954 980.576L459.923 982.035L439.517 881.801C439.269 880.108 437.795 878.853 436.087 878.853L311.579 879.13C257.353 875.16 250.113 841.851 250.113 841.851C253.85 842.989 257.645 843.369 261.44 843.091C296.515 840.698 332.788 784.808 332.788 784.808L381.044 789.61L458.186 797.273C477.205 799.36 491.919 814.906 492.94 834.027L500.954 980.576Z" fill="#3C4DB9"/>
<path d="M381.049 789.61C375.312 790.661 369.62 791.96 364.044 793.682C351.754 797.507 339.916 803.593 331.085 812.964C325.568 818.817 321.335 825.795 315.671 831.516C301.921 845.412 279.691 849.806 261.445 843.091C296.521 840.698 332.793 784.808 332.793 784.808L381.049 789.61Z" fill="#2D3C9C"/>
<path d="M293.266 590.12C273.546 588.091 254.658 598.571 245.9 616.364C233.697 641.164 212.941 680.735 198.739 707.578C190.974 722.262 198.943 740.317 215.014 744.507L243.696 751.966C243.696 751.966 239.23 809.242 240.339 838.844C256.307 846.945 276.1 844.726 291.981 836.45C307.862 828.188 318.342 819.211 329.319 805.067C347.827 781.261 391.354 782.939 391.354 782.939C391.354 782.939 390.712 680.136 394.434 623.779C394.667 620.349 394.843 616.729 393.31 613.664C391.529 610.073 387.778 607.942 384.202 606.103C370.539 599.097 325.086 593.389 293.236 590.12H293.266Z" fill="white"/>
<path d="M237.754 700.585L300.198 722.056" stroke="#363636" stroke-width="1.45965" stroke-miterlimit="10" stroke-linecap="round"/>
<path d="M285.337 652.447L258.582 707.739" stroke="#363636" stroke-width="1.45965" stroke-miterlimit="10" stroke-linecap="round"/>
<path d="M385.211 656.957C384.394 681.756 383.591 706.541 382.773 731.341" stroke="#363636" stroke-width="1.45965" stroke-miterlimit="10" stroke-linecap="round"/>
<path d="M402.562 710.76C400.694 713.577 398.825 716.379 396.957 719.197" stroke="#363636" stroke-width="1.45965" stroke-miterlimit="10" stroke-linecap="round"/>
<path d="M219.303 902.163H435.71C437.929 902.163 439.739 903.973 439.739 906.192V910.22H215.289V906.192C215.289 903.973 217.099 902.163 219.318 902.163H219.303Z" fill="black"/>
<path d="M215.289 1057.64V965.395" stroke="black" stroke-width="1.45965" stroke-miterlimit="10"/>
<path d="M171.238 1048.29L208.751 964.009" stroke="black" stroke-width="1.45965" stroke-miterlimit="10"/>
<path d="M134.805 1021.81L203.35 960.096" stroke="black" stroke-width="1.45965" stroke-miterlimit="10"/>
<path d="M112.281 982.809L200.021 954.316" stroke="black" stroke-width="1.45965" stroke-miterlimit="10"/>
<path d="M107.582 938.026L199.321 947.675" stroke="black" stroke-width="1.45965" stroke-miterlimit="10"/>
<path d="M121.496 895.2L201.383 941.325" stroke="black" stroke-width="1.45965" stroke-miterlimit="10"/>
<path d="M151.633 861.745L205.844 936.362" stroke="black" stroke-width="1.45965" stroke-miterlimit="10"/>
<path d="M192.766 843.427L211.945 933.648" stroke="black" stroke-width="1.45965" stroke-miterlimit="10"/>
<path d="M237.797 843.427L218.617 933.648" stroke="black" stroke-width="1.45965" stroke-miterlimit="10"/>
<path d="M278.945 861.745L224.719 936.362" stroke="black" stroke-width="1.45965" stroke-miterlimit="10"/>
<path d="M309.07 895.2L229.184 941.325" stroke="black" stroke-width="1.45965" stroke-miterlimit="10"/>
<path d="M322.981 938.026L231.242 947.675" stroke="black" stroke-width="1.45965" stroke-miterlimit="10"/>
<path d="M318.278 982.823L230.539 954.316" stroke="black" stroke-width="1.45965" stroke-miterlimit="10"/>
<path d="M295.76 1021.81L227.215 960.096" stroke="black" stroke-width="1.45965" stroke-miterlimit="10"/>
<path d="M259.329 1048.29L221.816 964.009" stroke="black" stroke-width="1.45965" stroke-miterlimit="10"/>
<path d="M215.291 845.995C272.291 845.995 318.649 892.368 318.649 949.353C318.649 1006.34 272.276 1052.71 215.291 1052.71C158.307 1052.71 111.934 1006.34 111.934 949.353C111.934 892.368 158.307 845.995 215.291 845.995ZM215.291 837.237C153.373 837.237 103.176 887.435 103.176 949.353C103.176 1011.27 153.373 1061.47 215.291 1061.47C277.21 1061.47 327.407 1011.27 327.407 949.353C327.407 887.435 277.21 837.237 215.291 837.237Z" fill="black"/>
<path d="M215.287 1056.87C274.668 1056.87 322.805 1008.73 322.805 949.354C322.805 889.973 274.668 841.836 215.287 841.836C155.907 841.836 107.77 889.973 107.77 949.354C107.77 1008.73 155.907 1056.87 215.287 1056.87Z" stroke="#FF794A" stroke-width="1.45965" stroke-miterlimit="10"/>
<path d="M215.292 965.22C224.055 965.22 231.159 958.116 231.159 949.354C231.159 940.591 224.055 933.487 215.292 933.487C206.529 933.487 199.426 940.591 199.426 949.354C199.426 958.116 206.529 965.22 215.292 965.22Z" fill="#363636"/>
<path d="M379.121 910.22V998.091" stroke="black" stroke-width="1.45965" stroke-miterlimit="10"/>
<path d="M379.123 1061.47C399.623 1061.47 416.242 1044.85 416.242 1024.35C416.242 1003.85 399.623 987.23 379.123 987.23C358.623 987.23 342.004 1003.85 342.004 1024.35C342.004 1044.85 358.623 1061.47 379.123 1061.47Z" fill="black"/>
<path d="M379.122 1043.73C389.828 1043.73 398.507 1035.06 398.507 1024.35C398.507 1013.64 389.828 1004.97 379.122 1004.97C368.417 1004.97 359.738 1013.64 359.738 1024.35C359.738 1035.06 368.417 1043.73 379.122 1043.73Z" fill="#363636"/>
<path d="M379.121 917.212L402.724 916.934C413.919 916.803 423.816 924.145 426.925 934.903C433.216 956.695 443.783 993.259 450.688 1017.14C452.79 1024.42 459.562 1029.37 467.152 1029.12C490.784 1028.33 536.34 1028.73 559.986 1029.12" stroke="black" stroke-width="1.45965" stroke-miterlimit="10"/>
<path d="M390.348 545.746C388.056 553.19 381.97 558.956 375.168 562.765C365.227 568.341 353.346 570.385 342.121 568.458C330.882 566.517 316.548 563.379 312.198 553.365C310.768 550.081 309.863 546.607 309.44 543.075C308.097 532.054 311.498 520.421 318.854 512.043C328.59 500.993 344.661 496.06 358.98 499.475C361.301 500.03 363.549 500.789 365.724 501.752C377.007 506.657 386.057 516.641 389.735 528.42C391.487 534.025 392.07 540.141 390.348 545.746Z" fill="#363636"/>
<path d="M355.723 561.729L354.584 582.34L353.256 606.424C353.198 607.46 353.066 608.482 352.847 609.475C350.906 618.846 342.586 625.662 332.967 625.662C332.193 625.662 331.42 625.618 330.646 625.531C318.473 624.159 310.255 612.438 313.13 600.542L323.654 556.796L355.723 561.729Z" fill="#FFB8A2"/>
<path d="M354.582 582.339L353.254 606.424C353.196 607.46 353.064 608.482 352.845 609.474C342.365 602.366 333.169 594.002 328.309 580.281C336.045 583.434 346.977 578.442 354.582 582.339Z" fill="#FF997A"/>
<path d="M375.836 584.529C373.457 588.105 370.552 591.593 367.005 593.856C365.327 594.936 363.517 595.739 361.532 596.148C356.16 597.257 350.686 595.286 345.563 593.345C339.111 590.907 332.485 588.353 327.463 583.624C322.457 578.894 319.421 571.363 321.946 564.955C317.158 564.823 313.772 561.495 311.67 558.022C310.415 555.934 309.393 553.628 309.32 551.19C309.247 548.753 310.283 546.169 312.356 544.914C314.867 543.396 318.253 544.14 320.588 545.936C322.909 547.731 324.413 550.358 325.858 552.913C328.106 548.286 329.346 541.527 334.207 537.601C337.258 535.134 341.286 534.229 345.198 533.923C352.365 533.353 359.576 534.58 366.743 533.923C373.895 533.28 381.5 530.186 384.638 523.734C384.842 524.391 385.032 525.048 385.207 525.705C390.637 545.439 387.148 567.465 375.836 584.529Z" fill="#FFB8A2"/>
<path d="M375.839 584.529C373.459 588.105 370.555 591.594 367.008 593.856C380.962 574.297 387.603 549.614 385.21 525.705C390.64 545.44 387.151 567.466 375.839 584.529Z" fill="#FFCCBD"/>
<path d="M365.724 501.752C358.557 500.73 351.098 501.752 344.34 504.423C335.203 508.043 327.35 514.495 321.277 522.202C316.3 528.508 312.476 535.631 309.44 543.075C308.097 532.054 311.498 520.421 318.854 512.043C328.59 500.993 344.661 496.06 358.98 499.475C361.301 500.03 363.549 500.789 365.724 501.752Z" fill="#292929"/>
<path d="M316.999 546.316C317.174 550.272 315.744 554.271 313.102 557.22" stroke="#363636" stroke-width="0.729824" stroke-miterlimit="10" stroke-linecap="round"/>
<path d="M316.18 551.584C318.822 552.358 320.865 554.839 321.142 557.569" stroke="#363636" stroke-width="0.729824" stroke-miterlimit="10" stroke-linecap="round"/>
<path d="M350.875 542.637C353.984 540.711 357.911 540.127 361.457 541.09" stroke="#363636" stroke-width="0.729824" stroke-miterlimit="10" stroke-linecap="round"/>
<path d="M378.199 541.864C380.812 541.353 383.688 542.374 385.381 544.433" stroke="#363636" stroke-width="0.729824" stroke-miterlimit="10" stroke-linecap="round"/>
<path d="M371.255 549.79C371.036 554.636 370.802 559.468 370.583 564.314C370.554 565.043 370.51 565.817 370.131 566.459C369.62 567.32 368.569 567.758 367.562 567.788C366.555 567.817 365.577 567.525 364.613 567.233" stroke="#363636" stroke-width="0.729824" stroke-miterlimit="10" stroke-linecap="round"/>
<path d="M360.499 554.592C361.426 554.592 362.178 553.037 362.178 551.118C362.178 549.2 361.426 547.645 360.499 547.645C359.572 547.645 358.82 549.2 358.82 551.118C358.82 553.037 359.572 554.592 360.499 554.592Z" fill="#363636"/>
<path d="M379.05 556.052C379.977 556.052 380.728 554.497 380.728 552.578C380.728 550.66 379.977 549.104 379.05 549.104C378.123 549.104 377.371 550.66 377.371 552.578C377.371 554.497 378.123 556.052 379.05 556.052Z" fill="#363636"/>
<path d="M357.154 570.59C356.993 572.809 358.336 575.056 360.379 575.961C362.408 576.866 364.992 576.37 366.539 574.764" stroke="#363636" stroke-width="0.729824" stroke-miterlimit="10" stroke-linecap="round"/>
<path d="M372.247 734.625C371.882 735.34 370.948 735.588 370.16 735.398C369.386 735.209 368.744 734.683 368.131 734.172C364.438 731.122 360.73 728.056 357.023 725.006C360.716 728.874 363.942 733.194 366.598 737.836C367.386 739.179 367.853 741.354 366.394 741.908C365.445 742.273 364.452 741.529 363.708 740.828C359.606 737.033 355.505 733.238 351.403 729.428C354.191 733.355 356.964 737.267 359.752 741.179C360.409 742.098 361.081 743.076 361.197 744.185C361.314 745.309 360.628 746.594 359.504 746.725C358.643 746.827 357.869 746.258 357.198 745.718C352.556 741.981 347.915 738.245 343.273 734.523C345.754 737.909 348.25 741.295 350.746 744.682C351.345 745.499 351.958 746.346 352.118 747.353C352.235 748.185 351.929 749.148 351.243 749.601C351.111 749.688 350.951 749.761 350.79 749.805C349.695 750.097 348.674 749.192 347.9 748.36C344.295 744.492 340.689 740.624 337.084 736.756C321.729 744.565 310.197 741.573 310.197 741.573L293.207 746.988L294.681 741.719L300.199 722.043L315.131 723.225C315.131 723.225 315.233 723.196 315.423 723.123C317.612 722.349 331.888 717.459 346.221 714.584C348.63 714.102 351.17 713.62 353.534 714.336C355.782 715.007 357.577 716.671 359.256 718.335C361.11 720.16 362.905 722.043 364.671 723.984C367.007 726.553 369.269 729.209 371.43 731.939C372.043 732.713 372.685 733.734 372.247 734.625Z" fill="#FFB8A2"/>
<path d="M351.243 749.6C351.111 749.688 350.951 749.761 350.79 749.805C349.695 750.096 348.674 749.191 347.9 748.359C344.295 744.491 340.689 740.623 337.084 736.755C321.729 744.564 310.197 741.572 310.197 741.572L293.207 746.987L294.681 741.718C299.629 739.981 304.505 738.157 309.234 736.288C319.13 738.638 329.8 737.66 339.113 733.559C343.156 738.901 347.199 744.258 351.243 749.6Z" fill="#FF997A"/>
<path d="M364.67 723.984C361.109 721.298 357.854 717.824 353.533 716.963C350.614 716.379 347.593 717.109 344.688 717.81C335.463 720.087 326.223 722.364 316.984 724.626C316.473 724.13 315.947 723.619 315.422 723.123C317.611 722.349 331.887 717.459 346.22 714.584C348.629 714.102 351.169 713.62 353.533 714.336C355.781 715.007 357.576 716.671 359.255 718.335C361.109 720.16 362.904 722.043 364.67 723.984Z" fill="#FFCCBD"/>
<path d="M443.956 735.296H354.918V749.892H443.956V735.296Z" fill="#384773" stroke="white" stroke-width="0.729824" stroke-miterlimit="10"/>
<path d="M415.875 749.893L444.674 630.596C445.769 626.085 449.797 622.903 454.439 622.903H604.549C611.059 622.903 615.847 628.99 614.314 635.31L586.654 749.893H415.875Z" fill="#384773" stroke="white" stroke-width="0.729824" stroke-miterlimit="10"/>
<path d="M321.141 750.257L674.39 749.469" stroke="black" stroke-width="1.45965" stroke-miterlimit="10" stroke-linecap="round"/>
<path d="M372.418 750.258L321.141 1083.92" stroke="black" stroke-width="1.45965" stroke-miterlimit="10" stroke-linecap="round"/>
<path d="M629.086 750.258L680.363 1083.92" stroke="black" stroke-width="1.45965" stroke-miterlimit="10" stroke-linecap="round"/>
<path d="M527.71 690.212C528.715 685.547 526.317 681.073 522.353 680.218C518.389 679.364 514.361 682.454 513.355 687.119C512.35 691.784 514.749 696.259 518.712 697.113C522.676 697.967 526.705 694.878 527.71 690.212Z" fill="#B6C7FC"/>
<path d="M855.708 364.925C897.002 398.745 911.452 461.466 889.105 509.941C882.945 523.282 872.582 536.638 858 538.404C843.403 540.17 828.281 522.508 837.025 510.7C845.184 499.679 864.7 506.262 869.75 519.005C874.8 531.748 869.954 546.14 864.13 558.547C838.791 612.51 793.965 657.044 739.841 682.033C685.718 707.022 622.748 712.263 565.238 696.557" stroke="#374672" stroke-width="2.9193" stroke-miterlimit="10" stroke-linecap="round"/>
<path d="M653.737 156.341C692.352 156.341 723.655 125.038 723.655 86.424C723.655 47.8098 692.352 16.5068 653.737 16.5068C615.123 16.5068 583.82 47.8098 583.82 86.424C583.82 125.038 615.123 156.341 653.737 156.341Z" fill="#9A63BC"/>
<path d="M603.527 86.0302C603.527 86.0302 652.28 29.1186 703.966 85.242C703.966 85.242 658.425 145.642 603.527 86.0302Z" fill="#F0DCFA"/>
<path d="M653.738 108.436C665.895 108.436 675.75 98.5812 675.75 86.4246C675.75 74.268 665.895 64.4131 653.738 64.4131C641.581 64.4131 631.727 74.268 631.727 86.4246C631.727 98.5812 641.581 108.436 653.738 108.436Z" fill="#9A63BC"/>
<path d="M187.921 365.874C226.535 365.874 257.838 334.571 257.838 295.957C257.838 257.343 226.535 226.04 187.921 226.04C149.307 226.04 118.004 257.343 118.004 295.957C118.004 334.571 149.307 365.874 187.921 365.874Z" fill="#5EB166"/>
<path d="M182.655 336.549C167.606 336.549 155.359 324.303 155.359 309.254C155.359 300.175 159.855 291.709 167.401 286.614C168.073 286.162 168.978 286.337 169.43 287.009C169.883 287.68 169.708 288.585 169.036 289.037C162.307 293.592 158.279 301.138 158.279 309.254C158.279 322.697 169.211 333.63 182.655 333.63C191.632 333.63 199.849 328.725 204.126 320.814C204.506 320.099 205.396 319.836 206.111 320.23C206.827 320.61 207.089 321.5 206.695 322.215C201.922 331.061 192.712 336.549 182.655 336.549Z" fill="#CEF3D1"/>
<path d="M175.94 278.382C175.385 283.622 174.831 288.862 174.276 294.117C174.159 295.153 174.072 296.262 174.524 297.211C175.269 298.758 177.181 299.284 178.859 299.605C184.8 300.744 190.828 301.4 196.667 301.707L207.352 317.573C211.862 318.201 214.124 318.522 218.635 319.15C222.547 315.661 219.569 311.297 216.183 311.151C214.314 311.063 212.446 312.275 211.541 313.997C207.79 308.232 204.257 302.32 200.929 296.306C200.375 295.299 199.367 294.598 198.214 294.467L185.369 292.847L187.603 276.82C187.749 275.725 187.646 274.587 187.106 273.623C185.691 271.069 182.903 271.667 180.64 272.412C175.342 274.149 170.116 276.134 165.153 278.469C162.701 281.9 160.526 285.534 158.672 289.329C158.337 290.001 158.016 290.701 158.016 291.46C158.016 292.219 158.454 293.007 159.183 293.183C160.249 293.445 161.11 292.351 161.665 291.416C163.562 288.176 165.445 284.95 167.284 281.724C170.102 280.717 172.919 279.71 175.896 278.426L175.94 278.382Z" fill="#CEF3D1"/>
<path d="M187.264 269.494C191.166 269.494 194.329 266.331 194.329 262.429C194.329 258.527 191.166 255.364 187.264 255.364C183.362 255.364 180.199 258.527 180.199 262.429C180.199 266.331 183.362 269.494 187.264 269.494Z" fill="#CEF3D1"/>
<path d="M855.198 304.729L837.755 320.814L871.035 356.896L844.542 381.316L811.277 345.248L793.834 361.334L790.316 295.956L855.198 304.729Z" fill="#00CBBA"/>
<path d="M765.562 279.535L781.94 292.015" stroke="#00CBBA" stroke-width="2.9193" stroke-miterlimit="10" stroke-linecap="round"/>
<path d="M783.211 268.136L788.743 288.585" stroke="#00CBBA" stroke-width="2.9193" stroke-miterlimit="10" stroke-linecap="round"/>
<path d="M759.941 300.788L781.938 299.562" stroke="#00CBBA" stroke-width="2.9193" stroke-miterlimit="10" stroke-linecap="round"/>
<path d="M275.967 752.302V769.54C275.967 790.457 259.006 807.418 238.089 807.418H181.09" stroke="black" stroke-width="1.45965" stroke-miterlimit="10" stroke-linecap="round"/>
<path d="M170.891 752.302H298.77" stroke="black" stroke-width="1.45965" stroke-miterlimit="10" stroke-linecap="round"/>
<path d="M1166.27 189.68V627.107" stroke="#94E7FC" stroke-width="2.9193" stroke-miterlimit="10"/>
<path d="M987.73 124.856C998.59 158.735 1009.55 193.183 1010.3 228.754C1011.04 264.326 1000.14 301.78 973.498 325.354C964.667 333.163 953.866 339.41 942.101 340.125C930.337 340.841 917.696 334.973 912.996 324.157C908.296 313.355 914.339 298.467 925.899 296.117C937.372 293.796 947.867 303.459 953.574 313.662C965.835 335.542 966.229 361.83 967.499 386.892C968.769 411.955 971.907 438.666 988.08 457.86C1004.25 477.04 1037.88 483.156 1053.69 463.684" stroke="#374672" stroke-width="2.9193" stroke-miterlimit="10" stroke-linecap="round"/>
<path d="M1165.13 408.524C1160.39 410.961 1155.3 413.457 1149.98 412.976C1144.67 412.494 1139.39 407.692 1140.48 402.466C1136.69 403.211 1132.53 401.692 1130.1 398.671C1127.68 395.65 1127.1 391.256 1128.66 387.709C1125.01 384.658 1123.24 379.506 1124.26 374.864C1125.29 370.222 1129.04 366.281 1133.64 365.041C1129.42 362.384 1127.01 357.115 1127.78 352.181C1128.56 347.248 1132.45 342.956 1137.28 341.716C1132.77 335.016 1133.88 325.105 1139.77 319.558C1145.65 314.011 1155.6 313.501 1162.03 318.405C1164.46 311.647 1171.38 306.772 1178.56 306.728C1185.74 306.684 1192.72 311.486 1195.23 318.23C1200.47 313.632 1208.59 312.683 1214.76 315.924C1220.94 319.164 1224.75 326.404 1223.93 333.323C1231.14 334.505 1238.48 337.906 1242.06 344.27C1245.63 350.634 1243.72 360.209 1236.95 362.953C1242.07 366.369 1244.77 373.054 1243.46 379.083C1242.15 385.096 1236.91 390.059 1230.82 391.022C1234.13 395.679 1233.83 402.583 1230.12 406.933C1226.4 411.282 1219.64 412.654 1214.51 410.115C1214.06 413.151 1210.79 414.859 1207.81 415.618C1196.62 418.464 1183.95 414.289 1176.64 405.356C1172.8 407.619 1168.36 408.859 1165.16 408.524H1165.13Z" fill="#353535"/>
<path d="M1075.86 1063.02L1108.68 1064.75L1121.4 995.478L1151.05 834.201L1163.38 767.058L1173.5 712.014L1176.61 767.058L1180.4 834.201L1189.5 995.478L1194.88 1058.51L1221.84 1058.05L1230.28 995.478L1245.45 834.201L1251.77 767.058L1255.95 722.538C1265.05 635.543 1227.51 595.593 1227.51 595.593L1111.17 602.424L1098.46 767.058L1093.28 834.201L1080.83 995.478L1075.86 1063.02Z" fill="#AE7261"/>
<path d="M1176.62 767.058L1180.42 834.201H1245.46L1251.78 767.058H1176.62Z" fill="#8F5545"/>
<path d="M1093.29 834.201H1151.06L1163.4 767.058H1098.47L1093.29 834.201Z" fill="#8F5545"/>
<path d="M1239.55 547.921L1234.31 604.862L1109.96 613.225C1109.96 613.225 1106.08 550.169 1111.89 501.256C1157.24 503.095 1239.55 547.921 1239.55 547.921Z" fill="#FF794A"/>
<path d="M1051.56 563.276C1051.56 563.276 1054.44 618.29 1108.27 570.691C1108.47 570.311 1108.66 569.917 1108.84 569.523L1113.93 558.561L1112.5 585.462C1112.5 585.462 1191.28 604.846 1224.08 591.447C1231.43 588.44 1241.56 569.917 1249.55 546.68C1260.89 513.721 1267.91 471.274 1256.52 450.299C1250.93 440.008 1240.64 434.053 1229.26 430.273C1223.29 428.273 1217.01 426.872 1210.97 425.762C1194.61 422.726 1178.1 420.435 1161.51 418.887C1156.22 418.391 1150.73 418.012 1145.52 418.8C1142.82 419.223 1140.2 419.953 1137.72 421.135C1130.07 424.799 1125.05 432.229 1120.41 439.337C1111.49 452.97 1092.28 487.885 1075.98 518.056C1061.13 545.556 1051.56 563.276 1051.56 563.276Z" fill="#FF794A"/>
<path d="M1075.54 520.858C1102.02 472.909 1130.89 426.915 1145.53 418.8C1142.83 419.223 1140.22 419.953 1137.74 421.135C1130.09 424.799 1125.07 432.229 1120.43 439.337C1111.51 452.97 1092.3 487.885 1075.99 518.056C1075.83 519.005 1075.69 519.924 1075.54 520.858Z" fill="#FFE3D9"/>
<path d="M1093.7 556.446L1071.55 488.484L1044.52 490.367L1051.8 565.568C1053.7 581.435 1071.61 589.784 1084.98 581.026C1093.08 575.728 1096.64 565.671 1093.68 556.446H1093.7Z" fill="#FF794A"/>
<path d="M1089.47 806.044L1220.57 807.081L1257.39 807.373C1257.39 807.373 1257.58 802.424 1257.82 794.177C1257.82 794.061 1257.84 793.929 1257.84 793.812C1257.93 790.733 1258.03 787.2 1258.14 783.303V782.938C1258.25 779.683 1258.33 776.165 1258.42 772.443C1258.44 772.312 1258.44 772.195 1258.44 772.078C1258.52 768.721 1258.6 765.218 1258.69 761.569C1258.69 761.452 1258.69 761.335 1258.7 761.204C1258.77 757.803 1258.83 754.3 1258.9 750.709V750.344C1258.98 746.914 1259.04 743.411 1259.09 739.849V739.484C1259.15 736.025 1259.2 732.507 1259.23 728.975C1259.23 728.858 1259.24 728.741 1259.23 728.61C1259.27 725.136 1259.3 721.618 1259.33 718.115V717.75C1259.36 714.247 1259.37 710.729 1259.37 707.241V706.876C1259.37 703.343 1259.36 699.84 1259.34 696.381V696.016C1259.33 692.469 1259.3 688.951 1259.24 685.507C1259.25 685.39 1259.24 685.273 1259.24 685.142C1259.2 681.566 1259.14 678.048 1259.05 674.647V674.282C1258.95 670.647 1258.85 667.144 1258.71 663.787C1258.71 663.656 1258.7 663.539 1258.7 663.422C1258.55 659.7 1258.38 656.182 1258.17 652.913C1258.17 652.781 1258.16 652.665 1258.14 652.548C1257.94 649.059 1257.68 645.863 1257.39 642.987C1257.36 642.681 1257.33 642.359 1257.28 642.053C1257.27 641.936 1257.25 641.805 1257.24 641.688C1256.83 637.937 1256.31 634.434 1255.69 631.179C1255.68 631.062 1255.65 630.93 1255.63 630.814C1254.9 626.989 1254.06 623.486 1253.14 620.319C1253.09 620.202 1253.07 620.071 1253.02 619.954C1251.85 615.969 1250.55 612.48 1249.21 609.459C1249.17 609.328 1249.11 609.211 1249.05 609.094C1247.07 604.642 1245.01 601.197 1243.14 598.585C1243.05 598.468 1242.96 598.336 1242.89 598.22C1239.3 593.286 1236.51 591.432 1236.51 591.432L1236.43 591.228L1224.27 565.363L1209.7 486.148L1208.79 481.2L1135.01 474.208C1108.76 539.002 1107.8 580.762 1108.36 594.133C1108.43 596.147 1108.55 597.519 1108.62 598.22L1108.66 598.585C1108.68 598.716 1108.69 598.789 1108.69 598.789L1107.74 609.094L1107.7 609.459L1106.74 619.954L1106.69 620.319L1105.71 630.814L1105.68 631.179L1104.71 641.688L1104.68 642.053L1103.7 652.548L1103.67 652.913L1102.69 663.422L1102.66 663.787L1101.69 674.282L1101.66 674.647L1100.68 685.142L1100.65 685.507L1099.67 696.016L1099.64 696.381L1098.66 706.876L1098.63 707.241L1097.66 717.75L1097.63 718.115L1096.65 728.61L1096.62 728.975L1095.64 739.484L1095.61 739.849L1094.64 750.344L1094.61 750.709L1093.63 761.204L1093.6 761.569L1092.62 772.078L1092.59 772.443L1091.61 782.938L1091.58 783.303L1090.61 793.812L1090.56 794.177L1089.47 806.044Z" fill="#3C4DB9"/>
<path opacity="0.54" d="M1108.36 594.133C1113.81 578.529 1117.26 562.225 1118.59 545.745C1137.32 558.751 1158.54 568.166 1180.75 573.304C1178.81 567.012 1182.97 560.006 1188.69 556.912C1194.4 553.817 1201.19 553.642 1207.68 553.54C1190.45 535.046 1171.66 517.968 1151.61 502.569C1171.87 501.503 1191.86 495.825 1209.7 486.148L1208.79 481.2L1135.01 474.208C1108.76 539.002 1107.8 580.762 1108.36 594.133Z" fill="#1D2997"/>
<path d="M1217.74 491.038C1208.43 508.817 1194.56 546.49 1194.56 546.49L1134.08 499.781L1117.25 524.595C1117.25 524.595 1176.7 587.565 1199.83 593.681C1204.4 594.892 1209.13 596.104 1213.8 595.374C1219.63 594.469 1224.6 590.601 1228.43 586.12C1236.02 577.216 1239.93 565.597 1241.18 553.964C1242.44 542.33 1241.23 530.565 1239.56 518.976C1237.64 505.489 1234.75 491.359 1225.68 481.2C1223.83 482.485 1221.65 483.579 1217.76 491.024L1217.74 491.038Z" fill="#FF794A"/>
<g style="mix-blend-mode:multiply" opacity="0.36">
<path d="M1229.27 430.273C1234.47 435.017 1238.61 440.987 1241.67 447.366C1246.07 456.591 1248.35 466.692 1249.91 476.792C1253.46 499.913 1253.33 523.589 1249.56 546.68C1260.9 513.721 1267.92 471.275 1256.54 450.3C1250.95 440.009 1240.66 434.054 1229.27 430.273Z" fill="#FF794A"/>
</g>
<path d="M1138.98 360.327C1135.68 360.444 1132.41 361.349 1129.52 362.925" stroke="white" stroke-width="0.729824" stroke-miterlimit="10" stroke-linecap="round"/>
<path d="M1162.33 379.827V430.214C1162.33 441.818 1170.71 451.219 1181.03 451.219C1186.18 451.219 1190.85 448.868 1194.24 445.059C1197.63 441.264 1199.71 436.024 1199.71 430.214V379.827H1162.33Z" fill="#AE7261"/>
<path d="M1162.33 402.861V417.808C1178.71 412.83 1184.2 398.861 1184.2 398.861C1184.2 398.861 1175.4 402.175 1162.33 402.861Z" fill="#8F5545"/>
<path d="M1142.04 392.336C1144.67 397.182 1148.28 401.05 1152.87 403.371C1159.05 406.494 1167.03 406.845 1176.78 403.05C1190.52 397.722 1202.97 377.608 1202.97 377.608C1202.97 377.608 1219.36 376.455 1220.15 361.858C1222.4 319.981 1148.42 320.842 1148.42 320.842C1148.42 320.842 1148.19 321.265 1147.78 322.083C1145.6 326.316 1140.1 339.745 1137.78 355.056C1135.88 367.565 1136.1 381.33 1142.04 392.336Z" fill="#AE7261"/>
<path d="M1147.25 355.335C1145.13 353.321 1141.32 353.54 1139.47 355.788" stroke="#363636" stroke-width="1.45965" stroke-miterlimit="10" stroke-linecap="round"/>
<path d="M1154.42 366.107L1150.45 377.639C1150.22 378.31 1150.63 379.04 1151.31 379.171C1152.49 379.405 1153.71 379.449 1154.9 379.288" stroke="#363636" stroke-width="1.45965" stroke-miterlimit="10" stroke-linecap="round"/>
<path d="M1163.91 356.254C1166.03 354.24 1169.84 354.459 1171.69 356.707" stroke="#363636" stroke-width="1.45965" stroke-miterlimit="10" stroke-linecap="round"/>
<path d="M1143.94 366.12C1143.04 366.12 1142.32 364.97 1142.32 363.551C1142.32 362.133 1143.04 360.982 1143.94 360.982C1144.83 360.982 1145.56 362.133 1145.56 363.551C1145.56 364.97 1144.83 366.12 1143.94 366.12Z" fill="#363636"/>
<path d="M1166.56 366.12C1165.67 366.12 1164.94 364.97 1164.94 363.551C1164.94 362.133 1165.67 360.982 1166.56 360.982C1167.46 360.982 1168.18 362.133 1168.18 363.551C1168.18 364.97 1167.46 366.12 1166.56 366.12Z" fill="#363636"/>
<path d="M1163.47 382.222C1163.41 385.214 1160.91 387.973 1157.95 388.338C1154.99 388.703 1151.89 386.644 1151.11 383.769" stroke="#363636" stroke-width="1.45965" stroke-miterlimit="10" stroke-linecap="round"/>
<path d="M1142.04 392.337C1144.67 397.183 1148.28 401.051 1152.88 403.372C1141.85 390.045 1136.4 372.281 1137.77 355.058C1135.87 367.567 1136.09 381.331 1142.03 392.337H1142.04Z" fill="#C98C7B"/>
<path d="M1237.34 573.538C1234.48 578.515 1231.58 583.536 1227.59 587.682C1223.61 591.827 1218.41 595.068 1212.69 595.535C1208.69 595.856 1204.74 594.849 1200.85 593.827C1200.85 593.827 1179.94 591.988 1117.23 524.596" stroke="#363636" stroke-width="1.45965" stroke-miterlimit="10" stroke-linecap="round"/>
<path d="M1224.27 479.565C1211.54 499.811 1194.58 546.49 1194.58 546.49L1135.01 500.511" stroke="#363636" stroke-width="1.45965" stroke-miterlimit="10" stroke-linecap="round"/>
<path d="M1141.03 375.23C1134.69 375.23 1129.54 369.838 1129.54 363.188C1129.54 356.537 1134.69 351.146 1141.03 351.146C1147.38 351.146 1152.52 356.537 1152.52 363.188C1152.52 369.838 1147.38 375.23 1141.03 375.23Z" stroke="white" stroke-width="0.729824" stroke-miterlimit="10"/>
<path d="M1168.04 375.23C1161.69 375.23 1156.55 369.838 1156.55 363.188C1156.55 356.537 1161.69 351.146 1168.04 351.146C1174.38 351.146 1179.52 356.537 1179.52 363.188C1179.52 369.838 1174.38 375.23 1168.04 375.23Z" stroke="white" stroke-width="0.729824" stroke-miterlimit="10"/>
<path d="M1157.27 363.043C1155.69 362.05 1153.56 362.036 1151.97 363.014" stroke="white" stroke-width="0.729824" stroke-miterlimit="10" stroke-linecap="round"/>
<path d="M1196.07 359.232C1190.36 359.451 1184.7 360.911 1179.59 363.48" stroke="white" stroke-width="0.729824" stroke-miterlimit="10" stroke-linecap="round"/>
<path d="M1140.89 331.688C1141.75 337.235 1146.2 342.066 1151.66 343.365C1157.12 344.664 1163.28 342.373 1166.55 337.789C1166.64 341.161 1168.74 344.387 1171.79 345.817C1174.84 347.248 1178.68 346.81 1181.32 344.723C1182.2 348.299 1184.97 351.349 1188.46 352.561C1191.95 353.758 1196.02 353.072 1198.91 350.78C1196.02 355.086 1197.67 361.727 1202.24 364.165C1203.36 361.976 1205.92 360.604 1208.39 360.866C1210.84 361.144 1213.03 363.027 1213.66 365.42C1214.4 368.296 1212.95 371.376 1210.75 373.375C1208.56 375.375 1205.73 376.514 1202.99 377.608C1202.81 382.119 1207.36 385.753 1211.87 385.943C1216.38 386.133 1220.6 383.724 1224.08 380.849C1226.11 379.17 1228 377.244 1229.13 374.879C1230.25 372.514 1230.51 369.595 1229.27 367.274C1228.54 365.887 1227.33 364.778 1226.66 363.362C1225.52 360.954 1226.12 358.137 1226.24 355.48C1226.65 346.46 1221.16 337.906 1213.79 332.68C1206.43 327.455 1197.41 325.076 1188.49 323.645C1179.57 322.215 1170.51 321.616 1161.74 319.471C1157.18 318.361 1152.17 316.858 1147.99 318.989C1143.53 321.237 1140.1 326.594 1140.89 331.703V331.688Z" fill="#353535"/>
<path d="M1212.73 425.851C1213.24 447.57 1211.43 463.86 1205.96 484.879" stroke="#2B3AA7" stroke-width="1.45965" stroke-miterlimit="10"/>
<path d="M1156.74 418.756C1146.01 438.943 1138.86 461.027 1135.7 483.666" stroke="#2B3AA7" stroke-width="1.45965" stroke-miterlimit="10"/>
<path d="M1071.09 441.876C1075.54 441.38 1080.38 440.956 1084.2 443.306C1087.7 445.452 1089.56 449.452 1091.22 453.217C1095.21 462.267 1099.19 471.332 1102.88 480.396C1120.05 494.657 1131.89 502.787 1131.89 502.787L1118.57 522.419L1087.46 490.38C1087.46 490.38 1081.63 489.898 1078.81 486.118C1074.36 480.148 1072.89 472.499 1072.17 465.084C1071.46 457.669 1071.34 450.108 1071.09 441.891V441.876Z" fill="#AE7261"/>
<path d="M1089.82 493.052L1073.23 419.559C1072.64 416.903 1070.27 415.02 1067.54 415.034L1035.36 415.195C1031.59 415.209 1028.85 418.756 1029.75 422.406L1048.19 496.789C1048.84 499.46 1051.28 501.299 1054.03 501.197L1084.36 500.146C1087.99 500.015 1090.62 496.614 1089.82 493.067V493.052Z" fill="black"/>
<path d="M1035.74 444.636C1040.76 444.212 1045.91 445.526 1050.14 448.285C1051.86 449.409 1053.51 450.912 1053.95 452.912C1054.39 454.911 1052.99 457.378 1050.95 457.334C1053.27 457.714 1055.24 459.685 1055.63 462.005C1056.01 464.326 1054.78 466.822 1052.71 467.946C1054.57 468.807 1055.69 471.026 1055.27 473.026C1054.84 475.025 1052.93 476.616 1050.89 476.646C1052.99 477.098 1053.95 479.886 1053.02 481.827C1052.08 483.769 1049.85 484.79 1047.7 484.878C1045.56 484.966 1043.47 484.28 1041.43 483.608C1039.4 482.937 1037.22 482.178 1035.93 480.47C1034.63 478.762 1034.76 475.814 1036.71 474.923C1035.14 474.12 1034.09 472.383 1034.09 470.617C1034.09 468.851 1035.17 467.129 1036.74 466.326C1035.05 465.611 1033.81 463.947 1033.6 462.122C1033.4 460.298 1034.23 458.4 1035.72 457.32C1032.5 453.685 1032.64 447.555 1035.72 444.636H1035.74Z" fill="#AE7261"/>
<path d="M1080.55 515.312C1083.74 525.428 1086.94 535.529 1090.14 545.644" stroke="#363636" stroke-width="1.45965" stroke-miterlimit="10" stroke-linecap="round"/>
<path d="M1230.29 995.478H1189.51L1194.9 1058.51L1191.57 1074.82L1221.11 1078.24L1221.86 1058.05L1230.29 995.478Z" fill="#E8E8E8"/>
<path d="M1045.34 1069.92L1108.69 1064.75L1121.42 995.478H1080.84L1076.04 1050.91L1045.34 1069.92Z" fill="#E8E8E8"/>
<path d="M1109.42 1060.77C1109.42 1060.77 1082.72 1067.2 1075.6 1067.8C1068.48 1068.4 1060.84 1066.87 1055.6 1062.18C1047.28 1065.93 1038.96 1069.67 1030.64 1073.42C1029.11 1074.11 1027.55 1074.82 1026.35 1076.01C1025.16 1077.19 1024.38 1078.94 1024.84 1080.56C1025.27 1082.17 1026.82 1083.28 1028.43 1083.68C1030.03 1084.09 1031.74 1083.93 1033.39 1083.76C1049.3 1082.08 1080.99 1077.7 1080.99 1077.7L1080.77 1082.78L1108.44 1082.25L1109.41 1060.8L1109.42 1060.77Z" fill="#3C4DB9"/>
<path d="M1192.04 1083.35C1189.8 1083.38 1188.14 1081.32 1188.59 1079.13C1189.16 1076.39 1190.27 1072.96 1192.37 1070.85C1208.3 1054.93 1221.23 1074.96 1221.23 1074.96L1221.68 1062.71L1225.03 1080.71C1225.24 1081.9 1224.34 1083.01 1223.11 1083.03L1192.04 1083.33V1083.35Z" fill="#3C4DB9"/>
<path d="M1223.11 1083.04L1192.04 1083.35" stroke="black" stroke-width="1.45965" stroke-miterlimit="10" stroke-linecap="round"/>
<path d="M1227.61 1000.31C1215.02 1001.53 1202.32 1002.78 1189.79 1001.2" stroke="black" stroke-width="1.45965" stroke-miterlimit="10" stroke-linecap="round"/>
<path d="M1119.2 1001.64C1106.62 1001.11 1094.03 1000.57 1081.47 1000.05" stroke="black" stroke-width="1.45965" stroke-miterlimit="10" stroke-linecap="round"/>
<g opacity="0.46">
<path d="M1090.56 794.177H1257.82C1257.82 794.061 1257.84 793.929 1257.84 793.812H1090.6L1090.56 794.177Z" fill="#AEB6EB"/>
<path d="M1107.7 609.46H1249.21C1249.17 609.328 1249.11 609.211 1249.05 609.095H1107.74L1107.7 609.46Z" fill="#AEB6EB"/>
<path d="M1106.69 620.318H1253.14C1253.1 620.201 1253.07 620.07 1253.02 619.953H1106.74L1106.69 620.318Z" fill="#AEB6EB"/>
<path d="M1105.69 631.178H1255.7C1255.68 631.062 1255.65 630.93 1255.64 630.813H1105.72L1105.69 631.178Z" fill="#AEB6EB"/>
<path d="M1104.68 642.053H1257.29C1257.27 641.937 1257.26 641.805 1257.24 641.688H1104.71L1104.68 642.053Z" fill="#AEB6EB"/>
<path d="M1103.67 652.913H1258.17C1258.17 652.781 1258.16 652.665 1258.14 652.548H1103.7L1103.67 652.913Z" fill="#AEB6EB"/>
<path d="M1108.62 598.22L1108.66 598.585H1243.14C1243.05 598.468 1242.96 598.336 1242.89 598.22H1108.62Z" fill="#AEB6EB"/>
<path d="M1102.66 663.787H1258.71C1258.71 663.655 1258.7 663.539 1258.7 663.422H1102.69L1102.66 663.787Z" fill="#AEB6EB"/>
<path d="M1101.66 674.647H1259.05V674.282H1101.69L1101.66 674.647Z" fill="#AEB6EB"/>
<path d="M1100.65 685.507H1259.24C1259.25 685.39 1259.24 685.273 1259.24 685.142H1100.68L1100.65 685.507Z" fill="#AEB6EB"/>
<path d="M1099.64 696.382H1259.34V696.017H1099.67L1099.64 696.382Z" fill="#AEB6EB"/>
<path d="M1098.63 707.242H1259.37V706.877H1098.66L1098.63 707.242Z" fill="#AEB6EB"/>
<path d="M1097.62 718.115H1259.32V717.75H1097.65L1097.62 718.115Z" fill="#AEB6EB"/>
<path d="M1096.62 728.975H1259.23C1259.23 728.858 1259.24 728.742 1259.23 728.61H1096.65L1096.62 728.975Z" fill="#AEB6EB"/>
<path d="M1095.61 739.849H1259.09V739.484H1095.64L1095.61 739.849Z" fill="#AEB6EB"/>
<path d="M1094.6 750.709H1258.9V750.344H1094.63L1094.6 750.709Z" fill="#AEB6EB"/>
<path d="M1093.6 761.569H1258.68C1258.68 761.452 1258.68 761.335 1258.7 761.204H1093.63L1093.6 761.569Z" fill="#AEB6EB"/>
<path d="M1092.59 772.444H1258.42C1258.44 772.313 1258.44 772.196 1258.44 772.079H1092.62L1092.59 772.444Z" fill="#AEB6EB"/>
<path d="M1091.58 783.302H1258.14V782.938H1091.61L1091.58 783.302Z" fill="#AEB6EB"/>
</g>
<g style="mix-blend-mode:multiply" opacity="0.67">
<path d="M1220.57 807.08L1257.39 807.372C1257.39 807.372 1257.58 802.424 1257.82 794.177C1257.82 794.06 1257.84 793.929 1257.84 793.812C1257.93 790.732 1258.03 787.2 1258.14 783.303V782.938C1258.25 779.683 1258.33 776.165 1258.42 772.443C1258.44 772.312 1258.44 772.195 1258.44 772.078C1258.52 768.721 1258.6 765.218 1258.69 761.569C1258.69 761.452 1258.69 761.335 1258.7 761.204C1258.77 757.803 1258.83 754.3 1258.9 750.709V750.344C1258.98 746.914 1259.04 743.411 1259.09 739.849V739.484C1259.15 736.025 1259.2 732.507 1259.23 728.975C1259.23 728.858 1259.24 728.741 1259.23 728.61C1259.27 725.136 1259.3 721.618 1259.33 718.115V717.75C1259.36 714.247 1259.37 710.729 1259.37 707.24V706.876C1259.37 703.343 1259.36 699.84 1259.34 696.381V696.016C1259.33 692.469 1259.3 688.951 1259.24 685.506C1259.25 685.39 1259.24 685.273 1259.24 685.141C1259.2 681.565 1259.14 678.048 1259.05 674.647V674.282C1258.95 670.647 1258.85 667.144 1258.71 663.787C1258.71 663.655 1258.7 663.539 1258.7 663.422C1258.55 659.7 1258.38 656.182 1258.17 652.912C1258.17 652.781 1258.16 652.664 1258.14 652.547C1257.94 649.059 1257.68 645.862 1257.39 642.987C1257.36 642.68 1257.33 642.359 1257.28 642.053C1257.27 641.936 1257.25 641.804 1257.24 641.688C1256.83 637.936 1256.31 634.433 1255.69 631.178C1255.68 631.061 1255.65 630.93 1255.63 630.813C1254.9 626.989 1254.06 623.486 1253.14 620.318C1253.09 620.202 1253.07 620.07 1253.02 619.954C1251.85 615.969 1250.55 612.48 1249.21 609.459C1249.17 609.327 1249.11 609.211 1249.05 609.094C1247.07 604.642 1245.01 601.197 1243.14 598.584C1243.05 598.468 1242.96 598.336 1242.89 598.219C1239.3 593.286 1236.51 591.432 1236.51 591.432L1236.43 591.228C1236.08 591.155 1235.72 591.067 1235.37 590.994C1246.29 662.955 1241.18 737.295 1220.57 807.08Z" fill="#3C4DB9"/>
</g>
<path d="M1004.92 184.731C966.309 184.731 935.006 153.428 935.006 114.814C935.006 76.1994 966.309 44.8965 1004.92 44.8965C1043.54 44.8965 1074.84 76.1994 1074.84 114.814C1074.84 153.428 1043.54 184.731 1004.92 184.731Z" fill="#4E9FA8"/>
<path d="M982.81 101.795C984.561 111.049 990.677 122.04 994.356 128.959L995.757 141.497C996.282 149.963 1003.29 156.561 1011.77 156.561C1016.02 156.561 1019.91 154.897 1022.79 152.182C1025.68 149.467 1027.55 145.686 1027.8 141.439C1027.8 141.439 1032.03 98.1746 1029.36 89.6211C1020.44 60.9974 977.219 72.3243 982.824 101.78L982.81 101.795Z" fill="#CAFAFF"/>
<path d="M980.121 110.757C974.545 110.581 968.984 109.822 963.554 108.494" stroke="#CAFAFF" stroke-width="1.45965" stroke-miterlimit="10" stroke-linecap="round"/>
<path d="M981.395 117.413C975.702 117.574 970.009 117.734 964.302 117.909" stroke="#CAFAFF" stroke-width="1.45965" stroke-miterlimit="10" stroke-linecap="round"/>
<path d="M982.125 123.499C976.739 124.039 971.426 125.192 966.317 126.958" stroke="#CAFAFF" stroke-width="1.45965" stroke-miterlimit="10" stroke-linecap="round"/>
<path d="M1016.88 86.8474C1010.79 85.2126 1003.9 86.9496 999.301 91.2702C994.703 95.5907 992.557 102.363 993.827 108.538" stroke="#4E9FA8" stroke-width="1.45965" stroke-miterlimit="10" stroke-linecap="round"/>
<path d="M1006.53 88.3066C1011.24 92.8315 1013.26 99.9984 1011.59 106.319C1010.31 111.179 1007.11 115.339 1005.75 120.171C1003.68 127.586 1006.63 136.139 1012.83 140.708" stroke="#4E9FA8" stroke-width="1.45965" stroke-miterlimit="10" stroke-linecap="round"/>
</g>
<defs>
<clipPath id="clip0_16939_3758">
<rect width="1409" height="1087" fill="white"/>
</clipPath>
</defs>
</svg>
